HIERARCHY
ROOT Beta:Hips
{
	OFFSET 0.00 0.00 0.00
	CHANNELS 6 Xposition Yposition Zposition Yrotation Xrotation Zrotation
	JOINT Beta:Spine
	{
		OFFSET	0.0000	9.2263	1.5771
		CHANNELS 3 Xrotation Yrotation Zrotation
		JOINT Beta:Spine1
		{
			OFFSET	0.0000	16.2540	-0.1656
			CHANNELS 3 Xrotation Yrotation Zrotation
			JOINT Beta:Spine2
			{
				OFFSET	0.0000	13.6396	-1.2923
				CHANNELS 3 Xrotation Yrotation Zrotation
				JOINT Beta:Neck
				{
					OFFSET	0.0000	13.8774	-4.3542
					CHANNELS 3 Xrotation Yrotation Zrotation
					JOINT Beta:Neck1
					{
						OFFSET	0.0000	4.3400	0.9269
						CHANNELS 3 Xrotation Yrotation Zrotation
						JOINT Beta:Head
						{
							OFFSET	0.0000	4.0266	0.8585
							CHANNELS 3 Xrotation Yrotation Zrotation
							End Site
							{
								OFFSET 0.0000 23.0297 0.1231
							}
						}
					}
				}
				JOINT Beta:LeftShoulder
				{
					OFFSET	6.1442	10.1870	-3.7932
					CHANNELS 3 Zrotation Xrotation Yrotation
					JOINT Beta:LeftArm
					{
						OFFSET	12.3191	-1.1130	-1.7935
						CHANNELS 3 Zrotation Xrotation Yrotation
						JOINT Beta:LeftForeArm
						{
							OFFSET	27.6870	0.0000	0.0000
							CHANNELS 3 Xrotation Zrotation Yrotation
							JOINT Beta:LeftHand
							{
								OFFSET	27.8738	0.0000	0.0000
								CHANNELS 3 Zrotation Yrotation Xrotation
								JOINT Beta:LeftHandThumb1
								{
									OFFSET	2.3785	-1.0029	2.6209
									CHANNELS 3 Zrotation Xrotation Yrotation
									JOINT Beta:LeftHandThumb2
									{
										OFFSET	3.3624	-1.0029	2.8398
										CHANNELS 3 Zrotation Xrotation Yrotation
										JOINT Beta:LeftHandThumb3
										{
											OFFSET	4.5018	-1.3445	2.1783
											CHANNELS 3 Zrotation Xrotation Yrotation
											End Site
											{
												OFFSET 2.6000 -1.0000 1.0000
											}
										}
									}
								}
								JOINT Beta:LeftHandMiddle1
								{
									OFFSET	10.4639	0.6148	0.4298
									CHANNELS 3 Zrotation Xrotation Yrotation
									JOINT Beta:LeftHandMiddle2
									{
										OFFSET	5.7921	0.0000	0.0000
										CHANNELS 3 Zrotation Xrotation Yrotation
										JOINT Beta:LeftHandMiddle3
										{
											OFFSET	3.7132	0.0000	0.0000
											CHANNELS 3 Zrotation Xrotation Yrotation
											End Site
											{
												OFFSET 2.3000 0.0000 0.0000
											}
										}
									}
								}
								JOINT Beta:LeftHandIndex1
								{
									OFFSET	10.3945	0.6148	2.7055
									CHANNELS 3 Zrotation Xrotation Yrotation
									JOINT Beta:LeftHandIndex2
									{
										OFFSET	5.5493	0.0000	0.0000
										CHANNELS 3 Zrotation Xrotation Yrotation
										JOINT Beta:LeftHandIndex3
										{
											OFFSET	3.3911	0.0000	0.0000
											CHANNELS 3 Zrotation Xrotation Yrotation
											End Site
											{
												OFFSET 2.5000 0.0000 0.0000
											}
										}
									}
								}
								JOINT Beta:LeftHandRing1
								{
									OFFSET	10.3252	0.3211	-1.8755
									CHANNELS 3 Zrotation Xrotation Yrotation
									JOINT Beta:LeftHandRing2
									{
										OFFSET	5.4452	0.0000	0.0000
										CHANNELS 3 Zrotation Xrotation Yrotation
										JOINT Beta:LeftHandRing3
										{
											OFFSET	3.7132	0.0000	0.0000
											CHANNELS 3 Zrotation Xrotation Yrotation
											End Site
											{
												OFFSET 2.0000 0.0000 0.0000
											}
										}
									}
								}
								JOINT Beta:LeftHandPinky1
								{
									OFFSET	10.0130	-0.0783	-3.9671
									CHANNELS 3 Zrotation Xrotation Yrotation
									JOINT Beta:LeftHandPinky2
									{
										OFFSET	3.6763	0.0000	0.0000
										CHANNELS 3 Zrotation Xrotation Yrotation
										JOINT Beta:LeftHandPinky3
										{
											OFFSET	2.8113	0.0000	0.0000
											CHANNELS 3 Zrotation Xrotation Yrotation
											End Site
											{
												OFFSET 2.9000 0.0000 0.0000
											}
										}
									}
								}
							}
						}
					}
				}
				JOINT Beta:RightShoulder
				{
					OFFSET	-6.1402	10.1870	-3.7932
					CHANNELS 3 Zrotation Xrotation Yrotation
					JOINT Beta:RightArm
					{
						OFFSET	-12.3231	-1.1130	-1.7935
						CHANNELS 3 Zrotation Xrotation Yrotation
						JOINT Beta:RightForeArm
						{
							OFFSET	-27.6870	0.0000	0.0000
							CHANNELS 3 Xrotation Zrotation Yrotation
							JOINT Beta:RightHand
							{
								OFFSET	-27.8738	0.0000	0.0000
								CHANNELS 3 Zrotation Yrotation Xrotation
								JOINT Beta:RightHandThumb1
								{
									OFFSET	-2.5178	-0.9367	2.5137
									CHANNELS 3 Zrotation Xrotation Yrotation
									JOINT Beta:RightHandThumb2
									{
										OFFSET	-3.2638	-1.0870	2.9669
										CHANNELS 3 Zrotation Xrotation Yrotation
										JOINT Beta:RightHandThumb3
										{
											OFFSET	-4.4165	-1.3703	2.1350
											CHANNELS 3 Zrotation Xrotation Yrotation
											End Site
											{
												OFFSET -2.6000 -1.0000 1.0000
											}
										}
									}
								}
								JOINT Beta:RightHandIndex1
								{
									OFFSET	-10.4665	0.4896	2.7120
									CHANNELS 3 Zrotation Xrotation Yrotation
									JOINT Beta:RightHandIndex2
									{
										OFFSET	-5.3768	0.0000	0.0000
										CHANNELS 3 Zrotation Xrotation Yrotation
										JOINT Beta:RightHandIndex3
										{
											OFFSET	-3.3855	0.0000	0.0000
											CHANNELS 3 Zrotation Xrotation Yrotation
											End Site
											{
												OFFSET -2.6000 0.0000 0.0000
											}
										}
									}
								}
								JOINT Beta:RightHandMiddle1
								{
									OFFSET	-10.7596	0.4896	0.4278
									CHANNELS 3 Zrotation Xrotation Yrotation
									JOINT Beta:RightHandMiddle2
									{
										OFFSET	-5.6168	0.0000	0.0000
										CHANNELS 3 Zrotation Xrotation Yrotation
										JOINT Beta:RightHandMiddle3
										{
											OFFSET	-3.7364	0.0000	0.0000
											CHANNELS 3 Zrotation Xrotation Yrotation
											End Site
											{
												OFFSET -2.3000 0.0000 0.0000
											}
										}
									}
								}
								JOINT Beta:RightHandRing1
								{
									OFFSET	-10.4702	0.3879	-1.9363
									CHANNELS 3 Zrotation Xrotation Yrotation
									JOINT Beta:RightHandRing2
									{
										OFFSET	-5.4013	0.0000	0.0000
										CHANNELS 3 Zrotation Xrotation Yrotation
										JOINT Beta:RightHandRing3
										{
											OFFSET	-3.3916	0.0000	0.0000
											CHANNELS 3 Zrotation Xrotation Yrotation
											End Site
											{
												OFFSET -2.2000 0.0000 0.0000
											}
										}
									}
								}
								JOINT Beta:RightHandPinky1
								{
									OFFSET	-9.9715	-0.1191	-3.9540
									CHANNELS 3 Zrotation Xrotation Yrotation
									JOINT Beta:RightHandPinky2
									{
										OFFSET	-3.6528	0.0000	0.0000
										CHANNELS 3 Zrotation Xrotation Yrotation
										JOINT Beta:RightHandPinky3
										{
											OFFSET	-2.7820	0.0000	0.0000
											CHANNELS 3 Zrotation Xrotation Yrotation
											End Site
											{
												OFFSET -2.9000 0.0000 0.0000
											}
										}
									}
								}
							}
						}
					}
				}
			}
		}
	}
	JOINT Beta:LeftUpLeg
	{
		OFFSET	9.6338	-3.2733	0.0000
		CHANNELS 3 Xrotation Yrotation Zrotation
		JOINT Beta:LeftLeg
		{
			OFFSET	0.0000	-41.7300	-1.7300
			CHANNELS 3 Xrotation Yrotation Zrotation
			JOINT Beta:LeftFoot
			{
				OFFSET	0.0126	-39.1900	-0.8477
				CHANNELS 3 Xrotation Yrotation Zrotation
				JOINT Beta:LeftToeBase
				{
					OFFSET	-0.1833	-12.1931	8.2823
					CHANNELS 3 Xrotation Yrotation Zrotation
					End Site
					{
						OFFSET 0.0000 0.0000 10.1681
					}
				}
			}
		}
	}
	JOINT Beta:RightUpLeg
	{
		OFFSET	-9.6338	-3.2733	0.0000
		CHANNELS 3 Xrotation Yrotation Zrotation
		JOINT Beta:RightLeg
		{
			OFFSET	0.0000	-41.7300	-1.7300
			CHANNELS 3 Xrotation Yrotation Zrotation
			JOINT Beta:RightFoot
			{
				OFFSET	0.0126	-39.1900	-0.8477
				CHANNELS 3 Xrotation Yrotation Zrotation
				JOINT Beta:RightToeBase
				{
					OFFSET	-0.1833	-12.1931	8.2823
					CHANNELS 3 Xrotation Yrotation Zrotation
					End Site
					{
						OFFSET 0.0032 0.0000 10.1681
					}
				}
			}
		}
	}
}
MOTION
Frames: 9
Frame Time: 0.0333333
0.0000 86.7823 0.0000 -81.2945 20.2746 -0.7855 9.2029 10.2100 -2.9984 3.5400 4.1947 -1.3438 3.5352 4.1822 -1.3939 -2.4981 7.1058 1.6991 -0.0000 0.0000 -0.0000 -15.4196 49.1656 -18.7822 -12.2969 0.1849 2.1843 -46.2342 12.1509 4.6005 -0.0000 -0.0000 -60.0695 2.5042 -8.3556 28.6818 -11.0575 2.8032 -5.4167 14.0357 -1.1935 -5.4799 6.9009 -10.0000 -36.3140 -3.8584 -0.0000 -2.3320 -7.3839 -0.0000 0.0000 14.3206 0.0000 0.0000 2.8915 -0.0000 -6.9804 -1.3104 0.0000 0.0000 13.5155 -0.0000 0.0000 -2.0977 -0.0000 6.4379 -23.1212 -0.0000 0.0000 13.0776 0.0000 0.0000 -5.2088 -1.3861 16.7745 -32.3977 -0.0000 0.0000 13.5936 0.0000 0.0000 13.1009 3.8607 15.3319 49.6990 -4.9657 -6.1014 0.0000 -0.0000 65.2356 21.9466 -35.1304 22.4013 8.6523 5.6554 -9.5776 -14.0357 -1.1935 -8.5625 -6.9009 -10.0000 26.2866 30.2090 0.0008 7.8676 20.1701 0.0000 -0.0000 3.1484 0.0000 0.0000 39.6074 -0.0000 6.4350 43.5917 -0.0000 0.0000 -0.9553 0.0000 -0.0000 42.2743 -0.0000 2.4488 63.3617 -0.0000 0.0000 10.5619 0.0000 0.0000 54.3941 -0.3817 1.4972 81.5864 -0.0000 -0.0000 30.8871 -0.0000 -0.0000 -47.4988 -6.1050 2.6225 113.8659 4.6506 -1.2858 -0.0040 -0.2156 3.6691 -8.3477 0.0000 -0.0000 -46.1412 -8.2465 4.4353 54.3434 5.9048 1.6283 -27.3781 2.3365 -11.0812 -9.8296 0.0000 -0.0000 
-14.2174 86.9622 0.1554 -81.5537 20.7690 1.3228 9.8090 12.0462 -5.7436 3.5870 5.2871 -2.0918 3.5803 5.2652 -2.1596 -2.4780 6.1780 2.4701 -0.0000 0.0000 -0.0000 -15.8174 46.6244 -17.9188 -10.9705 -0.3474 5.1443 -49.5373 11.6699 12.1657 0.0000 0.0000 -51.6091 2.3467 -14.3090 33.9384 -10.8167 3.0277 -4.0942 14.0355 -1.1934 -4.2440 6.9009 -9.9999 -35.4315 -6.6361 0.0000 -2.5932 -10.2187 -0.0000 0.0000 12.7053 -0.0000 -0.0000 0.3305 0.0004 -7.2128 -3.7654 0.0000 -0.0000 11.1338 -0.0000 0.0000 -5.2662 0.0000 6.2533 -26.3194 -0.0000 -0.0000 10.1131 0.0000 -0.0000 -9.1901 -1.3341 16.4527 -36.3783 -0.0000 0.0000 9.6609 0.0000 -0.0000 11.9952 3.7836 15.8941 44.1878 -6.4363 1.7707 0.0000 -0.0000 82.6575 20.2994 -38.6560 16.0301 8.6296 5.6775 -9.7053 -14.0363 -1.1935 -8.6819 -6.9011 -10.0000 26.2013 30.3280 0.0001 7.8748 20.2922 -0.0000 0.0000 3.2688 -0.0000 -0.0000 39.7485 -0.0000 6.4437 43.7347 0.0000 0.0000 -0.8440 -0.0000 0.0000 42.4524 0.0000 2.4527 63.5402 0.0000 0.0000 10.7402 -0.0000 0.0000 54.6488 -0.3766 1.5021 81.8411 0.0000 -0.0000 31.1418 -0.0000 0.0000 -63.9348 -2.9922 0.6956 115.5493 0.7467 -1.6087 -9.7097 -0.9291 4.7647 -7.6378 0.0000 0.0000 -32.5392 -7.5167 5.3909 48.3569 5.1592 -0.1958 -36.0299 3.9955 -10.9148 -9.8797 0.0000 0.0000 
-28.3429 87.7558 0.3968 -81.1861 20.9192 4.4822 10.3656 13.9117 -9.5200 3.5351 6.3590 -2.9151 3.5117 6.3360 -2.9905 -1.8584 5.1180 3.2058 -0.0000 0.0000 -0.0000 -15.8250 43.5345 -16.8460 -7.6354 -0.8202 8.3361 -52.8658 12.0673 21.0559 -0.0000 -0.0000 -48.7222 4.7788 -20.0672 36.3486 -10.5344 3.3047 -2.5062 14.0355 -1.1935 -2.7593 6.9009 -10.0000 -34.3713 -10.7999 0.0000 -3.0403 -14.4609 -0.0000 0.0000 10.2849 0.0000 0.0000 -3.5737 0.0005 -7.5011 -6.9506 0.0000 0.0000 8.0875 -0.0000 0.0000 -9.9008 0.0000 5.6802 -30.9909 0.0000 -0.0000 6.3312 -0.0000 -0.0000 -14.8035 -1.2507 15.3410 -41.9907 0.0000 0.0000 4.3003 -0.0000 0.0000 10.4906 3.5763 16.1208 40.2907 -9.9999 6.3961 -0.0000 0.0000 99.6465 16.0944 -39.4692 17.8312 8.6306 5.6743 -9.6941 -14.0367 -1.1934 -8.6713 -6.9012 -10.0000 26.2089 30.3174 0.0000 7.8752 20.2813 0.0000 0.0000 3.2581 0.0000 0.0000 39.7358 0.0000 6.4442 43.7219 -0.0000 0.0000 -0.8534 0.0000 0.0000 42.4366 0.0000 2.4530 63.5244 -0.0000 0.0000 10.7244 0.0000 0.0000 54.6262 -0.3775 1.5025 81.8185 0.0000 0.0000 31.1192 0.0000 0.0000 -76.7195 2.2545 -2.0886 108.3432 2.3330 -2.0280 -15.6622 -1.3508 5.6128 -6.4355 -0.0000 0.0000 -14.4990 -7.4819 5.0484 30.4385 3.6116 -2.8513 -32.6126 5.5659 -8.5955 -16.7430 0.0000 0.0000 
-42.7574 88.5846 0.5289 -80.0118 20.7095 7.2713 10.7811 15.8916 -12.6768 3.4234 7.2358 -3.5093 3.3777 7.2165 -3.5896 -0.8374 4.0879 3.6234 -0.0000 0.0000 -0.0000 -15.2638 40.2896 -16.3461 -2.9410 -1.0861 10.8070 -56.4606 12.3796 30.0458 -0.0000 0.0000 -50.8759 7.3528 -22.6371 36.5077 -10.2208 3.6306 -0.6908 14.0356 -1.1935 -1.0610 6.9009 -10.0000 -33.1586 -16.1783 0.0000 -3.6239 -19.9320 -0.0000 0.0000 7.1809 -0.0000 -0.0000 -8.6517 0.0003 -7.8077 -10.7672 -0.0000 0.0000 4.4855 -0.0000 0.0000 -15.8185 -0.0000 4.7763 -36.9456 -0.0000 0.0000 1.8793 0.0000 -0.0000 -21.8371 -1.1299 13.5850 -49.0239 0.0000 -0.0000 -2.3011 0.0000 0.0000 9.1236 3.2657 15.6479 37.6154 -16.2823 5.3813 -0.0000 -0.0000 115.3335 9.0647 -33.7543 25.2657 8.6370 5.6669 -9.6508 -14.0345 -1.1933 -8.6310 -6.9006 -9.9996 26.2377 30.2773 0.0004 7.8714 20.2402 -0.0000 -0.0000 3.2175 -0.0000 -0.0000 39.6884 0.0000 6.4397 43.6738 0.0000 -0.0000 -0.8905 0.0000 -0.0000 42.3766 -0.0000 2.4508 63.4643 0.0000 -0.0000 10.6643 0.0000 0.0000 54.5404 -0.3787 1.4998 81.7327 0.0000 -0.0000 31.0334 0.0000 -0.0000 -83.6681 6.6477 -5.3819 92.8157 -0.3862 -2.2102 -17.7753 -0.5928 4.7413 -5.6642 -0.0000 0.0000 6.1055 -8.1033 6.0452 1.5597 3.7337 -6.0153 -3.6758 4.8483 -3.8027 -23.7232 0.0006 -0.2913 
-57.9500 88.9909 0.4581 -78.4515 20.1549 7.8543 10.6801 17.8656 -13.4681 3.2294 7.7663 -3.6600 3.1734 7.7458 -3.7537 0.2376 3.3023 3.7312 -0.0000 0.0000 -0.0000 -14.0618 37.6170 -16.6452 1.6098 -1.1310 11.8101 -59.3260 11.8615 36.9642 0.0000 -0.0000 -55.0866 7.6259 -21.2213 36.4513 -9.8957 3.9904 1.2534 14.0356 -1.1934 0.7590 6.9009 -10.0000 -31.8589 -22.4274 0.0000 -4.2722 -26.2791 -0.0000 -0.0000 3.6469 -0.0000 0.0000 -14.5705 0.0000 -8.0805 -14.9914 0.0000 -0.0000 0.5510 -0.0000 -0.0000 -22.6466 0.0000 3.6284 -43.8027 0.0000 0.0000 -2.9614 0.0000 -0.0000 -29.8521 -0.9716 11.3320 -57.0392 -0.0000 -0.0000 -9.7418 0.0000 -0.0000 8.3620 2.9401 14.5320 35.1989 -24.7913 -0.7786 0.0000 -0.0000 128.3534 1.6955 -21.3294 34.1602 8.6110 5.7046 -9.8278 -14.0319 -1.1935 -8.7972 -6.8999 -9.9987 26.1192 30.4438 0.0003 7.8745 20.4104 0.0000 -0.0000 3.3853 0.0000 -0.0000 39.8856 0.0000 6.4439 43.8732 0.0000 0.0000 -0.7362 -0.0000 0.0000 42.6250 0.0000 2.4513 63.7131 -0.0000 0.0000 10.9129 -0.0000 -0.0000 54.8953 -0.3686 1.5010 82.0877 0.0000 -0.0000 31.3885 -0.0000 -0.0000 -83.5799 7.8480 -8.3867 70.6620 -6.8123 -1.8787 -17.0743 1.7069 -4.0173 -5.9774 0.0000 -0.0000 13.3073 -10.0419 7.5344 1.9510 5.5684 -8.2225 11.9414 4.1267 7.7655 -19.7144 0.0000 0.0000 
-74.1946 88.9234 0.2998 -76.8768 19.2413 5.9541 9.8350 19.2210 -11.6637 2.9588 7.9075 -3.4505 2.9140 7.8757 -3.5688 0.9933 2.9339 3.8439 -0.0000 0.0000 -0.0000 -12.4296 36.2713 -17.1502 4.5062 -1.0999 11.4599 -60.7168 10.7503 40.4394 0.0000 -0.0000 -58.2176 5.4726 -17.7616 37.6097 -9.5817 4.3626 3.2043 14.0355 -1.1934 2.5863 6.9009 -9.9999 -30.5541 -29.1048 -0.0000 -4.9108 -33.0521 -0.0000 -0.0000 -0.0353 -0.0000 0.0000 -20.9043 -0.0000 -8.2738 -19.3439 -0.0000 0.0000 -3.4579 -0.0000 -0.0000 -29.9074 0.0000 2.3421 -51.0795 0.0000 0.0000 -7.8771 -0.0000 -0.0000 -38.2924 -0.7841 8.7448 -65.4804 -0.0000 0.0000 -17.5139 0.0000 0.0000 8.3352 2.7239 13.3668 32.5449 -32.0330 -8.5821 -0.0000 0.0000 137.3579 -2.7473 -8.4197 42.2532 8.5711 5.7662 -10.1277 -14.0369 -1.1938 -9.0782 -6.9012 -10.0000 25.9184 30.7243 0.0000 7.8872 20.6975 0.0000 0.0000 3.6684 0.0000 -0.0000 40.2178 0.0000 6.4597 44.2098 0.0000 0.0000 -0.4761 -0.0000 0.0000 43.0443 0.0000 2.4576 64.1332 -0.0000 -0.0000 11.3324 0.0000 -0.0000 55.4945 -0.3545 1.5093 82.6870 -0.0000 -0.0000 31.9877 0.0000 0.0000 -76.2522 6.4370 -10.0862 45.4152 -7.4444 -1.5731 -13.9571 3.2263 -16.0379 -6.9460 0.0000 0.0000 12.1949 -14.1964 9.1683 24.6934 7.7679 -7.4370 10.4936 3.5317 16.9722 -10.6364 -0.0000 -0.0000 
-90.8649 88.6352 0.2426 -75.2082 17.9454 3.5542 8.7583 19.0026 -8.9737 2.7346 7.6519 -3.1689 2.7118 7.6060 -3.3072 1.1327 3.1178 4.0712 -0.0000 0.0000 -0.0000 -11.0822 36.7909 -17.0878 4.8421 -1.1273 10.4351 -61.1697 9.3943 40.7318 0.0000 -0.0000 -59.8544 2.8376 -14.1206 39.2407 -9.2969 4.7248 5.0495 14.0359 -1.1935 4.3156 6.9009 -10.0000 -29.3192 -35.7679 0.0000 -5.4836 -39.8032 0.0000 -0.0000 -3.6226 -0.0000 0.0000 -27.2284 -0.0000 -8.3648 -23.5591 -0.0000 0.0000 -7.3080 0.0000 0.0000 -37.1257 0.0000 1.0204 -58.3001 -0.0000 -0.0000 -12.5895 0.0000 0.0000 -46.6132 -0.5826 6.0227 -73.8030 -0.0000 0.0000 -25.1249 0.0000 0.0000 8.8447 2.7056 12.8272 31.8397 -32.6619 -13.5798 0.0000 -0.0000 141.3153 -4.9217 -2.9104 50.3134 8.6401 5.6645 -9.6554 -14.0459 -1.1935 -8.6343 -6.9037 -10.0000 26.2348 30.2795 0.0000 7.8812 20.2430 0.0000 0.0000 3.2203 0.0000 -0.0000 39.6910 0.0000 6.4509 43.6770 0.0000 0.0000 -0.8894 -0.0000 -0.0000 42.3806 -0.0000 2.4576 63.4684 0.0000 0.0000 10.6684 -0.0000 -0.0000 54.5464 -0.3822 1.5078 81.7386 0.0000 -0.0000 31.0393 -0.0000 -0.0000 -63.0213 5.1377 -10.4616 20.6885 -8.8314 -2.4664 -3.0003 2.1647 -19.3984 -7.8774 0.0000 0.0000 14.6516 -19.9731 9.7810 41.0459 8.1139 -3.5336 12.4015 2.6494 16.3604 -5.9702 0.0000 0.0000 
-106.7363 88.2528 0.3686 -73.7336 16.7257 2.6897 8.2525 16.7586 -7.3658 2.6984 6.9392 -3.0111 2.6891 6.8889 -3.1451 0.5729 3.9335 4.0378 -0.0000 0.0000 -0.0000 -11.0467 39.2329 -16.3361 2.0953 -1.1512 9.0487 -60.7038 7.8336 38.3395 -0.0000 -0.0000 -61.3026 0.4544 -10.2459 40.0849 -9.0538 5.0546 6.6899 14.0364 -1.1935 5.8535 6.9011 -10.0000 -28.2210 -41.9539 -0.0000 -5.9518 -46.0657 0.0000 0.0000 -6.8889 0.0000 -0.0000 -33.0998 0.0002 -8.3576 -27.3815 0.0000 0.0000 -10.7787 -0.0000 0.0000 -43.8094 0.0000 -0.2261 -64.9750 0.0000 0.0000 -16.8321 0.0000 0.0000 -54.2646 -0.3865 3.4180 -81.4567 -0.0000 0.0000 -32.0869 0.0000 0.0000 9.5704 2.8746 13.1174 35.0984 -24.3200 -14.4991 0.0000 0.0000 139.5651 -9.4748 -6.3053 58.2682 8.9699 5.1657 -7.2623 -14.0371 -1.1927 -6.3899 -6.9015 -10.0000 27.8377 28.0357 0.0073 7.8060 17.9469 -0.0000 -0.0000 0.9568 -0.0000 -0.0000 37.0333 0.0000 6.3548 40.9864 -0.0000 -0.0000 -2.9788 -0.0000 0.0000 39.0286 0.0000 2.4262 60.1104 0.0000 -0.0000 7.3144 0.0000 -0.0000 49.7571 -0.5040 1.4635 76.9479 -0.0000 0.0000 26.2487 0.0000 0.0000 -49.9206 5.8638 -10.3114 5.5095 -10.0000 -4.7531 12.8445 -3.4417 -9.5320 -8.7704 0.0000 0.0000 11.7041 -25.9730 6.1285 60.6788 3.7441 0.5306 10.9386 -3.1413 3.5516 -7.0411 0.0000 -0.0000 
-121.1730 87.6417 0.6633 -72.9181 16.5306 3.7025 8.4111 13.1482 -7.2530 2.8544 5.7920 -2.9525 2.8441 5.7503 -3.0570 -0.3573 5.1841 3.4210 -0.0000 0.0000 -0.0000 -12.7793 42.7094 -15.4860 -3.5998 -0.8873 6.8212 -58.0194 6.5101 33.1149 -0.0000 -0.0000 -62.8651 -3.3572 -5.6304 40.0788 -8.8548 5.3378 8.0737 14.0354 -1.1934 7.1514 6.9009 -9.9999 -27.2942 -47.2351 -0.0000 -6.2934 -51.4091 0.0000 0.0000 -9.6982 0.0000 0.0000 -38.1067 0.0002 -8.2837 -30.6251 0.0000 -0.0000 -13.7184 0.0000 -0.0000 -49.5133 0.0000 -1.2734 -70.6647 -0.0000 0.0000 -20.4239 0.0000 0.0000 -60.7767 -0.2139 1.1878 -87.9709 0.0000 0.0000 -38.0044 -0.0000 -0.0000 10.2630 3.0999 13.7389 40.8602 -10.6731 -15.0484 -0.0000 -0.0000 131.9293 -18.9253 -12.2560 62.8064 9.6227 4.2923 -2.8730 -14.0199 -1.1921 -2.2767 -6.8969 -9.9944 30.7758 23.9248 0.0249 7.6397 13.7379 -0.0000 -0.0000 -3.1924 -0.0000 -0.0000 32.1642 -0.0000 6.1461 36.0552 -0.0000 -0.0000 -6.8235 0.0000 0.0000 32.8847 -0.0000 2.3489 53.9552 -0.0000 -0.0000 1.1664 -0.0000 0.0000 40.9778 -0.7152 1.3595 68.1665 -0.0000 -0.0000 17.4672 0.0000 -0.0000 -51.1657 9.2807 -8.6271 24.3611 -10.0000 -6.7227 9.1066 -0.6026 9.8763 -9.6223 0.0000 0.0000 -0.3424 -29.2275 -1.0456 83.5455 -2.6394 2.0445 5.5259 -9.4508 -7.8759 -9.2206 0.0000 -0.0000 
